<?xml version="1.0" encoding="utf-8"?>
<!-- Generator: Adobe Illustrator 23.1.0, SVG Export Plug-In . SVG Version: 6.00 Build 0)  -->
<svg version="1.1" id="Layer_1" xmlns="http://www.w3.org/2000/svg" xmlns:xlink="http://www.w3.org/1999/xlink" x="0px" y="0px"
	 viewBox="0 0 64 64" style="enable-background:new 0 0 64 64;" xml:space="preserve">
<style type="text/css">
	.st0{fill:#F33636;stroke:#F33636;stroke-width:0.5;stroke-miterlimit:10;}
</style>
<title>Corona Virus</title>
<g id="Corona_Virus">
	<path class="st0" d="M59.9,27.8c-1.8,0-3.4,1.2-3.9,3h-3c-0.1-3-0.9-5.9-2.3-8.5l2.8-1.6c0.5,0.5,1.2,0.7,1.9,0.7c1.7,0,3-1.4,3-3
		c0-0.5-0.1-1-0.4-1.5c-0.8-1.4-2.7-1.9-4.1-1.1c-0.7,0.4-1.2,1.1-1.4,1.8c-0.1,0.4-0.1,0.9,0,1.3l-2.8,1.6
		c-1.6-2.5-3.8-4.7-6.3-6.3l1.6-2.8c0.2,0,0.4,0.1,0.5,0.1c0.3,0,0.5,0,0.8-0.1c1.6-0.4,2.6-2,2.2-3.6c-0.4-1.6-2-2.6-3.6-2.2
		c-1.6,0.4-2.6,2-2.2,3.6c0.1,0.4,0.3,0.8,0.6,1.2l-1.6,2.8c-2.7-1.4-5.7-2.1-8.6-2.3v-3C35.2,7.3,36.5,5.2,36,3s-2.8-3.4-4.9-2.9
		S27.7,2.8,28.2,5c0.4,1.4,1.5,2.5,2.9,2.9V11c-3,0.1-5.9,0.9-8.5,2.3L21,10.5c1.1-1.3,0.9-3.2-0.4-4.2c-1.3-1.1-3.2-0.9-4.2,0.4
		C15.3,8,15.5,9.9,16.7,11c0.3,0.3,0.7,0.5,1.2,0.6c0.3,0.1,0.5,0.1,0.8,0.1c0.2,0,0.4,0,0.5-0.1l1.6,2.8c-2.5,1.6-4.7,3.8-6.3,6.3
		L11.8,19c0.1-0.4,0.1-0.9,0-1.3c-0.4-1.6-2.1-2.5-3.7-2.1S5.6,17.7,6,19.3c0.2,0.7,0.7,1.4,1.4,1.8c0.5,0.3,1,0.4,1.5,0.4
		c0.7,0,1.4-0.3,1.9-0.7l2.8,1.6c-1.4,2.6-2.2,5.6-2.3,8.5H8.1c-0.6-2.1-2.7-3.4-4.9-2.9c-2.1,0.6-3.4,2.7-2.9,4.9s2.7,3.4,4.9,2.9
		c1.4-0.4,2.5-1.5,2.9-2.9h3.2c0.1,3,0.9,5.9,2.3,8.5L10.8,43c-1.3-1.1-3.2-0.9-4.2,0.4S5.7,46.5,7,47.5s3.2,0.9,4.2-0.4
		c0.3-0.3,0.5-0.7,0.6-1.2c0.1-0.4,0.1-0.9,0-1.3l2.8-1.6c1.6,2.5,3.8,4.7,6.3,6.3l-1.7,2.8c-0.4-0.1-0.9-0.1-1.3,0
		c-1.6,0.4-2.6,2-2.2,3.6s2,2.6,3.6,2.2c1.6-0.4,2.6-2,2.2-3.6c-0.1-0.4-0.3-0.8-0.6-1.2l1.6-2.8c2.7,1.5,5.7,2.3,8.6,2.4v3.2
		c-2.1,0.6-3.4,2.7-2.9,4.9c0.6,2.1,2.7,3.4,4.9,2.9s3.4-2.7,2.9-4.9c-0.4-1.4-1.5-2.5-2.9-2.9v-3.2c3-0.1,5.9-0.9,8.5-2.3l1.6,2.8
		c-1.1,1.3-0.9,3.2,0.4,4.2c1.3,1,3.2,0.9,4.2-0.4c1-1.3,0.9-3.2-0.4-4.2c-0.3-0.3-0.7-0.5-1.2-0.6c-0.4-0.1-0.9-0.1-1.3,0l-1.6-2.8
		c2.5-1.6,4.7-3.8,6.3-6.3l2.8,1.6c-0.1,0.4-0.1,0.9,0,1.3c0.4,1.6,2,2.6,3.6,2.2s2.6-2,2.2-3.6c-0.4-1.6-2-2.6-3.6-2.2
		c-0.4,0.1-0.8,0.3-1.2,0.6l-2.8-1.6c1.5-2.7,2.3-5.7,2.4-8.6h3.2c0.6,2.1,2.7,3.4,4.9,2.9c2.1-0.6,3.4-2.7,2.9-4.9
		C63.4,29,61.7,27.8,59.9,27.8z M54.4,18.1c0.1-0.5,0.7-0.8,1.2-0.7c0.5,0.1,0.8,0.7,0.7,1.2c-0.1,0.3-0.2,0.5-0.5,0.6
		c-0.5,0.3-1.1,0.1-1.4-0.4C54.4,18.7,54.4,18.4,54.4,18.1z M44.6,8.1c0.3-0.5,0.9-0.6,1.4-0.4c0.5,0.3,0.6,0.9,0.4,1.4
		c-0.1,0.2-0.4,0.4-0.6,0.5c-0.3,0.1-0.5,0-0.8-0.1C44.5,9.2,44.4,8.6,44.6,8.1z M18.4,9.6c-0.5-0.1-0.8-0.7-0.7-1.2
		c0.1-0.5,0.7-0.8,1.2-0.7c0.3,0.1,0.5,0.2,0.6,0.5c0.3,0.5,0.1,1.1-0.4,1.4l0,0C19,9.6,18.7,9.6,18.4,9.6z M8.3,19.3
		c-0.5-0.3-0.6-0.9-0.4-1.4c0.2-0.5,0.9-0.6,1.4-0.4c0.2,0.1,0.4,0.4,0.5,0.6c0.1,0.3,0,0.5-0.1,0.8C9.4,19.4,8.8,19.5,8.3,19.3z
		 M9.8,45.5c-0.1,0.5-0.7,0.8-1.2,0.7S7.8,45.5,7.9,45c0.1-0.3,0.2-0.5,0.5-0.6c0.5-0.3,1.1-0.1,1.4,0.4C9.8,44.9,9.8,45.2,9.8,45.5
		z M19.6,55.6c-0.3,0.5-0.9,0.6-1.4,0.4c-0.5-0.2-0.6-0.9-0.4-1.4c0.1-0.2,0.4-0.4,0.6-0.5c0.1,0,0.2,0,0.3,0c0.6,0,1,0.4,1,1
		C19.7,55.3,19.7,55.5,19.6,55.6L19.6,55.6z M45.8,54.1c0.5,0.1,0.8,0.7,0.7,1.2s-0.7,0.8-1.2,0.7c-0.3-0.1-0.5-0.2-0.6-0.5
		c-0.3-0.5-0.1-1.1,0.4-1.4l0,0c0.2-0.1,0.3-0.1,0.5-0.1C45.6,54.1,45.7,54.1,45.8,54.1z M55.3,44.2c0.2,0,0.3,0,0.5,0.1
		c0.5,0.3,0.6,0.9,0.4,1.4s-0.9,0.6-1.4,0.4c-0.2-0.1-0.4-0.4-0.5-0.6c-0.1-0.3,0-0.5,0.1-0.8C54.6,44.4,54.9,44.2,55.3,44.2z
		 M30.1,4c0-1.1,0.9-2,2-2s2,0.9,2,2s-0.9,2-2,2S30.1,5.1,30.1,4z M4.2,33.8c-1.1,0-2-0.9-2-2c0-1.1,0.9-2,2-2s2,0.9,2,2
		C6.2,32.9,5.3,33.8,4.2,33.8z M34.1,59.7c0,1.1-0.9,2-2,2c-1.1,0-2-0.9-2-2s0.9-2,2-2C33.2,57.7,34.1,58.6,34.1,59.7z M42.3,47.6
		l-1-1.7c-0.3-0.5-0.9-0.6-1.4-0.4c-0.5,0.3-0.6,0.9-0.4,1.4l1,1.7c-5.4,2.8-11.7,2.8-17.1,0l1-1.7c0.3-0.5,0.1-1.1-0.4-1.4
		c-0.5-0.3-1.1-0.1-1.4,0.4l-1,1.7c-5.1-3.3-8.3-8.8-8.5-14.8h2.1c0.6,0,1-0.4,1-1c0-0.6-0.4-1-1-1h-1.9c0.3-6.1,3.5-11.5,8.5-14.8
		l1,1.7c0.3,0.5,0.9,0.6,1.4,0.4l0,0c0.5-0.3,0.6-0.9,0.4-1.4l-1-1.7c5.4-2.8,11.7-2.8,17.1,0l-1,1.7c-0.3,0.5-0.1,1.1,0.4,1.4
		s1.1,0.1,1.4-0.4l0,0l1-1.7c5.1,3.3,8.3,8.8,8.5,14.8h-2c-0.6,0-1,0.4-1,1c0,0.6,0.4,1,1,1h2C50.7,38.9,47.4,44.3,42.3,47.6z
		 M59.9,33.8c-1.1,0-2-0.9-2-2c0-1.1,0.9-2,2-2s2,0.9,2,2C61.9,32.9,61,33.8,59.9,33.8z"/>
	<path class="st0" d="M28.6,20.9c-2.5,0-4.5,2-4.5,4.5s2,4.5,4.5,4.5s4.5-2,4.5-4.5S31.1,20.9,28.6,20.9z M28.6,27.8
		c-1.4,0-2.5-1.1-2.5-2.5s1.1-2.5,2.5-2.5s2.5,1.1,2.5,2.5S30,27.8,28.6,27.8z"/>
	<path class="st0" d="M36.1,35.8c-2.2,0-4,1.8-4,4s1.8,4,4,4s4-1.8,4-4S38.2,35.8,36.1,35.8z M36.1,41.8c-1.1,0-2-0.9-2-2s0.9-2,2-2
		s2,0.9,2,2S37.2,41.8,36.1,41.8z"/>
	<path class="st0" d="M40.5,23.9c-1.9,0-3.5,1.6-3.5,3.5s1.6,3.5,3.5,3.5s3.5-1.6,3.5-3.5S42.4,23.9,40.5,23.9z M40.5,28.8
		c-0.8,0-1.5-0.7-1.5-1.5s0.7-1.5,1.5-1.5s1.5,0.7,1.5,1.5C42,28.1,41.3,28.8,40.5,28.8L40.5,28.8z"/>
	<path class="st0" d="M23.1,32.8c-1.7,0-3,1.3-3,3s1.3,3,3,3s3-1.3,3-3S24.8,32.8,23.1,32.8z M23.1,36.8c-0.6,0-1-0.4-1-1s0.4-1,1-1
		s1,0.4,1,1S23.7,36.8,23.1,36.8z"/>
</g>
</svg>
