<?xml version="1.0" encoding="utf-8"?>
<!-- Generator: Adobe Illustrator 23.1.0, SVG Export Plug-In . SVG Version: 6.00 Build 0)  -->
<svg version="1.1" id="Layer_1" xmlns="http://www.w3.org/2000/svg" xmlns:xlink="http://www.w3.org/1999/xlink" x="0px" y="0px"
	 viewBox="0 0 64 64" style="enable-background:new 0 0 64 64;" xml:space="preserve">
<style type="text/css">
	.st0{fill:#FF073A;}
</style>
<title>Corona Virus</title>
<g id="Corona_Virus">
	<path class="st0" d="M60,28c-1.8,0-3.4,1.2-3.9,3H53c-0.1-3-0.9-5.9-2.3-8.6l2.8-1.6c0.5,0.5,1.2,0.7,1.9,0.7c1.7,0,3-1.4,3-3
		c0-0.5-0.1-1-0.4-1.5c-0.8-1.4-2.7-1.9-4.1-1.1c-0.7,0.4-1.2,1.1-1.4,1.8c-0.1,0.4-0.1,0.9,0,1.3l-2.8,1.6
		c-1.6-2.5-3.8-4.7-6.3-6.3l1.6-2.8c0.2,0,0.4,0.1,0.5,0.1c0.3,0,0.5,0,0.8-0.1c1.6-0.4,2.6-2,2.2-3.6s-2-2.6-3.6-2.2
		c-1.6,0.4-2.6,2-2.2,3.6c0.1,0.4,0.3,0.8,0.6,1.2l-1.6,2.8C39,11.9,36,11.2,33,11V7.9c2.1-0.6,3.4-2.7,2.9-4.9S33.1-0.4,31,0.1
		S27.6,2.8,28.1,5c0.4,1.4,1.5,2.5,2.9,2.9V11c-3,0.1-5.9,0.9-8.6,2.3l-1.6-2.8c1.1-1.3,0.9-3.2-0.4-4.2c-1.3-1.1-3.2-0.9-4.2,0.4
		C15.1,8,15.3,9.9,16.5,11c0.3,0.3,0.7,0.5,1.2,0.6c0.3,0.1,0.5,0.1,0.8,0.1c0.2,0,0.4,0,0.5-0.1l1.6,2.8c-2.5,1.6-4.7,3.8-6.3,6.3
		L11.6,19c0.1-0.4,0.1-0.9,0-1.3c-0.4-1.6-2.1-2.5-3.7-2.1c-1.6,0.4-2.5,2.1-2.1,3.7C6,20,6.5,20.7,7.2,21.1c0.5,0.3,1,0.4,1.5,0.4
		c0.7,0,1.4-0.3,1.9-0.7l2.8,1.6C12,25,11.2,28,11.1,31H7.9c-0.6-2.1-2.7-3.4-4.9-2.9c-2.1,0.6-3.4,2.7-2.9,4.9s2.7,3.4,4.9,2.9
		c1.4-0.4,2.5-1.5,2.9-2.9h3.2c0.1,3,0.9,5.9,2.3,8.6l-2.8,1.6c-1.3-1.1-3.2-0.9-4.2,0.4s-0.9,3.2,0.4,4.2s3.2,0.9,4.2-0.4
		c0.3-0.3,0.5-0.7,0.6-1.2c0.1-0.4,0.1-0.9,0-1.3l2.8-1.6c1.6,2.5,3.8,4.7,6.3,6.3L19,52.4c-0.4-0.1-0.9-0.1-1.3,0
		c-1.6,0.4-2.6,2-2.2,3.6s2,2.6,3.6,2.2c1.6-0.4,2.6-2,2.2-3.6c-0.1-0.4-0.3-0.8-0.6-1.2l1.6-2.8C25,52.1,28,52.9,31,53v3.2
		c-2.1,0.6-3.4,2.7-2.9,4.9c0.6,2.1,2.7,3.4,4.9,2.9s3.4-2.7,2.9-4.9c-0.4-1.4-1.5-2.5-2.9-2.9V53c3-0.1,5.9-0.9,8.6-2.3l1.6,2.8
		c-1.1,1.3-0.9,3.2,0.4,4.2s3.2,0.9,4.2-0.4s0.9-3.2-0.4-4.2c-0.3-0.3-0.7-0.5-1.2-0.6c-0.4-0.1-0.9-0.1-1.3,0l-1.6-2.8
		c2.5-1.6,4.7-3.8,6.3-6.3l2.8,1.6c-0.1,0.4-0.1,0.9,0,1.3c0.4,1.6,2,2.6,3.6,2.2s2.6-2,2.2-3.6s-2-2.6-3.6-2.2
		c-0.4,0.1-0.8,0.3-1.2,0.6l-2.8-1.6C52.1,39,52.9,36,53,33h3.2c0.6,2.1,2.7,3.4,4.9,2.9c2.1-0.6,3.4-2.7,2.9-4.9
		C63.5,29.2,61.8,28,60,28z M54.4,18.2c0.1-0.5,0.7-0.8,1.2-0.7s0.8,0.7,0.7,1.2c-0.1,0.3-0.2,0.5-0.5,0.6c-0.5,0.3-1.1,0.1-1.4-0.4
		C54.4,18.8,54.4,18.5,54.4,18.2z M44.6,8.1c0.3-0.5,0.9-0.6,1.4-0.4c0.5,0.3,0.6,0.9,0.4,1.4c-0.1,0.2-0.4,0.4-0.6,0.5
		c-0.3,0.1-0.5,0-0.8-0.1C44.5,9.2,44.4,8.6,44.6,8.1z M18.2,9.6c-0.5-0.1-0.8-0.7-0.7-1.2c0.1-0.5,0.7-0.8,1.2-0.7
		c0.3,0.1,0.5,0.2,0.6,0.5c0.3,0.5,0.1,1.1-0.4,1.4l0,0C18.8,9.6,18.5,9.6,18.2,9.6z M8.1,19.4c-0.5-0.3-0.6-0.9-0.4-1.4
		s0.9-0.6,1.4-0.4c0.2,0.1,0.4,0.4,0.5,0.6c0.1,0.3,0,0.5-0.1,0.8C9.2,19.5,8.6,19.6,8.1,19.4z M9.6,45.8c-0.1,0.5-0.7,0.8-1.2,0.7
		c-0.5-0.1-0.8-0.7-0.7-1.2c0.1-0.3,0.2-0.5,0.5-0.6c0.5-0.3,1.1-0.1,1.4,0.4C9.6,45.2,9.6,45.5,9.6,45.8z M19.4,55.9
		c-0.3,0.5-0.9,0.6-1.4,0.4s-0.6-0.9-0.4-1.4c0.1-0.2,0.4-0.4,0.6-0.5c0.1,0,0.2,0,0.3,0c0.6,0,1,0.4,1,1
		C19.5,55.6,19.5,55.8,19.4,55.9L19.4,55.9z M45.8,54.4c0.5,0.1,0.8,0.7,0.7,1.2c-0.1,0.5-0.7,0.8-1.2,0.7c-0.3-0.1-0.5-0.2-0.6-0.5
		c-0.3-0.5-0.1-1.1,0.4-1.4l0,0c0.2-0.1,0.3-0.1,0.5-0.1C45.6,54.4,45.7,54.4,45.8,54.4z M55.4,44.5c0.2,0,0.3,0,0.5,0.1
		c0.5,0.3,0.6,0.9,0.4,1.4s-0.9,0.6-1.4,0.4c-0.2-0.1-0.4-0.4-0.5-0.6c-0.1-0.3,0-0.5,0.1-0.8C54.7,44.7,55,44.5,55.4,44.5z M30,4
		c0-1.1,0.9-2,2-2c1.1,0,2,0.9,2,2s-0.9,2-2,2C30.9,6,30,5.1,30,4z M4,34c-1.1,0-2-0.9-2-2c0-1.1,0.9-2,2-2s2,0.9,2,2
		C6,33.1,5.1,34,4,34z M34,60c0,1.1-0.9,2-2,2c-1.1,0-2-0.9-2-2s0.9-2,2-2C33.1,58,34,58.9,34,60z M42.3,47.9l-1-1.7
		c-0.3-0.5-0.9-0.6-1.4-0.4c-0.5,0.3-0.6,0.9-0.4,1.4l1,1.7c-5.4,2.8-11.8,2.8-17.2,0l1-1.7c0.3-0.5,0.1-1.1-0.4-1.4
		c-0.5-0.3-1.1-0.1-1.4,0.4l-1,1.7c-5.1-3.3-8.3-8.9-8.6-14.9H15c0.6,0,1-0.4,1-1s-0.4-1-1-1h-1.9c0.3-6.1,3.5-11.6,8.6-14.9l1,1.7
		c0.3,0.5,0.9,0.6,1.4,0.4c0,0,0,0,0,0c0.5-0.3,0.6-0.9,0.4-1.4l-1-1.7c5.4-2.8,11.8-2.8,17.2,0l-1,1.7c-0.3,0.5-0.1,1.1,0.4,1.4
		c0.5,0.3,1.1,0.1,1.4-0.4c0,0,0,0,0,0l1-1.7c5.1,3.3,8.3,8.9,8.6,14.9h-2c-0.6,0-1,0.4-1,1s0.4,1,1,1h2
		C50.7,39.1,47.4,44.6,42.3,47.9z M60,34c-1.1,0-2-0.9-2-2c0-1.1,0.9-2,2-2s2,0.9,2,2C62,33.1,61.1,34,60,34z"/>
	<path class="st0" d="M28.5,21C26,21,24,23,24,25.5s2,4.5,4.5,4.5s4.5-2,4.5-4.5C33,23,31,21,28.5,21z M28.5,28
		c-1.4,0-2.5-1.1-2.5-2.5s1.1-2.5,2.5-2.5s2.5,1.1,2.5,2.5S29.9,28,28.5,28z"/>
	<path class="st0" d="M36,36c-2.2,0-4,1.8-4,4s1.8,4,4,4s4-1.8,4-4S38.2,36,36,36z M36,42c-1.1,0-2-0.9-2-2s0.9-2,2-2s2,0.9,2,2
		S37.1,42,36,42z"/>
	<path class="st0" d="M40.5,24c-1.9,0-3.5,1.6-3.5,3.5s1.6,3.5,3.5,3.5s3.5-1.6,3.5-3.5S42.4,24,40.5,24z M40.5,29
		c-0.8,0-1.5-0.7-1.5-1.5s0.7-1.5,1.5-1.5s1.5,0.7,1.5,1.5S41.3,29,40.5,29L40.5,29z"/>
	<path class="st0" d="M23,33c-1.7,0-3,1.3-3,3s1.3,3,3,3s3-1.3,3-3S24.7,33,23,33z M23,37c-0.6,0-1-0.4-1-1s0.4-1,1-1s1,0.4,1,1
		S23.6,37,23,37z"/>
</g>
</svg>
